# xmcd
#
# Track frame offsets: 
#        150
#        20717
#        38100
#        50027
#        65750
#        78535
#        93585
#        98692
#        109417
#        120707
#        133990
#        144677
#        153752
#        161565
#        170705
#        183382
#        194765
#        209592
#        221110
#
# Disc length: 3259 seconds
#
# Revision: 0
# Processed by: cddbd v1.4PL0 Copyright (c) Steve Scherf et al.
# Submitted via: ExactAudioCopy v0.90b4
#
DISCID=2e0cb913
DTITLE=Memphis Slim - Born To Boogie
DYEAR=1900
DGENRE=Blues
TTITLE0=Bye Bye Will Be On My Way
TTITLE1=Letter Home
TTITLE2=Memphis Slim USA
TTITLE3=Born With The Blues
TTITLE4=Rocking The House
TTITLE5=I Wanna Dance
TTITLE6=Coco Boogie
TTITLE7=Fat Cat
TTITLE8=Chunkin'
TTITLE9=Lonely Nights
TTITLE10=Walk On
TTITLE11=Pretending I'm Happy
TTITLE12=The Big Dream
TTITLE13=The Natural Fact
TTITLE14=Blues Universal
TTITLE15=She's Gone For Twelve Hours
TTITLE16=My Walking Shoes
TTITLE17=When I'm Gone
TTITLE18=T.W.A.
EXTD=
EXTT0=
EXTT1=
EXTT2=
EXTT3=
EXTT4=
EXTT5=
EXTT6=
EXTT7=
EXTT8=
EXTT9=
EXTT10=
EXTT11=
EXTT12=
EXTT13=
EXTT14=
EXTT15=
EXTT16=
EXTT17=
EXTT18=
PLAYORDER=
